<?xml version="1.0" encoding="UTF-8" standalone="no"?>
<svg
   xmlns:dc="http://purl.org/dc/elements/1.1/"
   xmlns:cc="http://creativecommons.org/ns#"
   xmlns:rdf="http://www.w3.org/1999/02/22-rdf-syntax-ns#"
   xmlns:svg="http://www.w3.org/2000/svg"
   xmlns="http://www.w3.org/2000/svg"
   xmlns:sodipodi="http://sodipodi.sourceforge.net/DTD/sodipodi-0.dtd"
   xmlns:inkscape="http://www.inkscape.org/namespaces/inkscape"
   width="1000"
   height="500"
   viewBox="0 0 1000 500"
   version="1.1"
   id="svg17283"
   sodipodi:docname="Flag_of_the_Philippines_resized.svg"
   inkscape:version="0.92.4 (5da689c313, 2019-01-14)">
  <metadata
     id="metadata17289">
    <rdf:RDF>
      <cc:Work
         rdf:about="">
        <dc:format>image/svg+xml</dc:format>
        <dc:type
           rdf:resource="http://purl.org/dc/dcmitype/StillImage" />
        <dc:title></dc:title>
      </cc:Work>
    </rdf:RDF>
  </metadata>
  <defs
     id="defs17287" />
  <sodipodi:namedview
     pagecolor="#ffffff"
     bordercolor="#666666"
     borderopacity="1"
     objecttolerance="10"
     gridtolerance="10"
     guidetolerance="10"
     inkscape:pageopacity="0"
     inkscape:pageshadow="2"
     inkscape:window-width="1024"
     inkscape:window-height="548"
     id="namedview17285"
     showgrid="false"
     fit-margin-top="0"
     fit-margin-left="0"
     fit-margin-right="0"
     fit-margin-bottom="0"
     inkscape:zoom="0.39585237"
     inkscape:cx="450"
     inkscape:cy="215.08199"
     inkscape:window-x="-8"
     inkscape:window-y="-8"
     inkscape:window-maximized="1"
     inkscape:current-layer="svg17283" />
  <rect
     width="1000"
     height="500"
     id="rect17269"
     x="0"
     y="0"
     style="fill:#0038a8;stroke-width:5.55555582" />
  <rect
     y="250"
     width="1000"
     height="250"
     id="rect17271"
     x="0"
     style="fill:#ce1126;stroke-width:5.55555582" />
  <path
     d="M 433.01266,250 0,500 V 0"
     id="path17273"
     inkscape:connector-curvature="0"
     style="fill:#ffffff;stroke-width:5.55555582" />
  <path
     d="M 25,43.30127 40.050333,56.30729 57.47589,46.71462 49.757222,65.0474 64.26522,78.65578 44.444444,76.98003 35.985333,94.98314 31.454111,75.6147 11.718111,73.13286 28.738444,62.83823 Z"
     id="path17275"
     inkscape:connector-curvature="0"
     style="fill:#fcd116;stroke-width:5.55555582" />
  <path
     d="M 363.81878,223.58176 364.224,243.46904 383.01266,250 364.224,256.53095 363.81878,276.41824 351.80144,260.56729 332.76222,266.32736 344.12378,250 l -11.36156,-16.32736 19.03922,5.76007 z"
     id="path17277"
     inkscape:connector-curvature="0"
     style="fill:#fcd116;stroke-width:5.55555582" />
  <path
     d="M 35.985333,405.01686 44.444444,423.01997 64.26522,421.34422 49.757222,434.9526 57.47589,453.28538 40.050333,443.69271 25,456.69872 l 3.738444,-19.53697 -17.020333,-10.29461 19.736,-2.48184 z"
     id="path17279"
     inkscape:connector-curvature="0"
     style="fill:#fcd116;stroke-width:5.55555582" />
  <path
     d="m 155.55555,144.44445 -6.49166,6.49166 3.21945,49.16911 c -1.09456,0.0705 -2.17812,0.17665 -3.25245,0.31665 l -5.91111,-44.86773 -5.29756,5.29756 7.97612,40.1045 c -6.561,1.29822 -12.65889,3.8755 -18.02367,7.46806 L 105.06045,174.42883 H 97.566 l 27.55,35.90867 c -0.86444,0.66456 -1.70166,1.35966 -2.52011,2.07811 L 90.098,175.359 h -9.183335 v 9.18334 l 37.056555,32.49794 c -0.71922,0.81944 -1.413,1.66122 -2.07811,2.52672 L 79.984445,192.01039 v 7.49445 l 34.002005,22.72082 c -3.59156,5.36389 -6.17667,11.45767 -7.47456,18.01706 l -40.104555,-7.97606 -5.297555,5.29756 44.86766,5.91112 c -0.14,1.0745 -0.2461,2.1581 -0.31665,3.25244 L 56.491665,243.50833 50,250 l 6.491665,6.49167 49.169115,-3.21945 c 0.0711,1.09494 0.17665,2.1845 0.31665,3.259 l -44.867665,5.90456 5.297555,5.29756 40.10456,-7.97606 c 1.298,6.56061 3.87489,12.65777 7.468,18.02361 l -33.99545,22.71422 v 7.49444 l 35.90867,-27.54999 c 0.66455,0.86478 1.35967,1.70139 2.07811,2.52016 l -37.05656,32.49789 v 9.18333 H 90.098 l 32.49789,-37.05655 c 0.81967,0.71972 1.661,1.41228 2.52667,2.07811 L 97.566,325.57117 h 7.49445 l 22.72088,-34.00206 c 5.36245,3.59473 11.45689,6.18328 18.01701,7.48123 l -7.97612,40.09794 5.29756,5.29755 5.91111,-44.86772 c 1.07389,0.14 2.15789,0.2461 3.25244,0.31665 l -3.21944,49.16911 6.49166,6.49166 6.49167,-6.49166 -3.21944,-49.16911 c 1.09467,-0.0711 2.17811,-0.17665 3.25244,-0.31665 l 5.91111,44.86772 5.29756,-5.29755 -7.976,-40.10456 c 6.56089,-1.29816 12.65878,-3.87544 18.02356,-7.46805 l 22.71422,33.99549 h 7.49444 l -27.55,-35.90866 c 0.86445,-0.66456 1.70178,-1.35966 2.52023,-2.07811 l 32.49788,37.05655 h 9.18334 v -9.18333 L 193.14,282.95972 c 0.71922,-0.81944 1.41289,-1.66122 2.07811,-2.52672 l 35.90867,27.55655 v -7.49444 l -34.00212,-22.72083 c 3.59156,-5.36383 6.17679,-11.45761 7.47467,-18.017 l 40.10456,7.97606 5.29755,-5.29756 -44.86778,-5.91112 c 0.14,-1.07455 0.2461,-2.1581 0.31665,-3.25244 l 49.16914,3.21945 6.49166,-6.49167 -6.49166,-6.49167 -49.16912,3.21945 c -0.07,-1.09461 -0.17665,-2.17811 -0.31665,-3.25244 l 44.86778,-5.91112 -5.29755,-5.29756 -40.10455,7.97606 c -1.29823,-6.56094 -3.87545,-12.65883 -7.46812,-18.02361 l 33.99556,-22.71428 v -7.49444 l -35.90867,27.55 c -0.66458,-0.86439 -1.35968,-1.70167 -2.07813,-2.52011 l 37.05655,-32.49794 V 175.359 h -9.18333 l -32.49789,37.05661 c -0.81944,-0.71922 -1.66122,-1.41294 -2.52678,-2.07811 l 27.55656,-35.90867 h -7.49445 l -22.72077,34.00206 c -5.36389,-3.59155 -11.45767,-6.17673 -18.017,-7.47467 l 7.976,-40.1045 -5.29756,-5.29755 -5.91111,44.86772 c -1.07444,-0.14 -2.15811,-0.2461 -3.25244,-0.31665 l 3.21944,-49.16911 z"
     id="path17281"
     inkscape:connector-curvature="0"
     style="fill:#fcd116;stroke-width:5.55555582" />
</svg>
